<svg width="30" height="25" viewBox="0 0 30 25" fill="none" xmlns="http://www.w3.org/2000/svg">
<path d="M0 25V2.94118C0 2.13235 0.308947 1.4402 0.926842 0.864706C1.54579 0.288235 2.28947 0 3.15789 0H22.1053C22.9737 0 23.7174 0.288235 24.3363 0.864706C24.9542 1.4402 25.2632 2.13235 25.2632 2.94118V10.4044C25 10.3554 24.7437 10.3245 24.4942 10.3118C24.2437 10.3 23.9737 10.2941 23.6842 10.2941C23.3947 10.2941 23.1253 10.3 22.8758 10.3118C22.6253 10.3245 22.3684 10.3554 22.1053 10.4044V2.94118H3.15789V17.9044L3.43421 17.6471H14.3289C14.2763 17.8922 14.2432 18.1314 14.2295 18.3647C14.2168 18.5971 14.2105 18.848 14.2105 19.1176C14.2105 19.3873 14.2168 19.6382 14.2295 19.8706C14.2432 20.1039 14.2763 20.3431 14.3289 20.5882H4.73684L0 25ZM6.31579 8.82353V5.88235H18.9474V8.82353H6.31579ZM6.31579 14.7059V11.7647H14.2105V14.7059H6.31579ZM22.1053 25V20.5882H17.3684V17.6471H22.1053V13.2353H25.2632V17.6471H30V20.5882H25.2632V25H22.1053Z" fill="black"/>
</svg>
